<?xml version="1.0" encoding="utf-8"?>
<!-- Generator: Adobe Illustrator 22.0.1, SVG Export Plug-In . SVG Version: 6.00 Build 0)  -->
<svg version="1.1" id="Layer_1" xmlns="http://www.w3.org/2000/svg" xmlns:xlink="http://www.w3.org/1999/xlink" x="0px" y="0px"
	 viewBox="0 0 225.4 83.1" style="enable-background:new 0 0 225.4 83.1;" xml:space="preserve">
<style type="text/css">
	.st0{font-family:'HelveticaNeueLTCom-Bd';}
	.st1{font-size:76.8466px;}
	.st2{font-family:'Fonarto';}
	.st3{fill:#49BFAC;}
	.st4{fill:#EF4758;}
	.st5{fill:#FDC16F;}
	.st6{fill:#0A374D;}
</style>
<g>
	<text transform="matrix(1 0 0 1 40.9231 66.4717)"><tspan x="0" y="0" class="st0 st1">S</tspan><tspan x="49.9" y="0" class="st2 st1">ubi.</tspan></text>
	<g>
		<path class="st3" d="M29.1,11.1v9.9c-5,0.7-9.4,3.3-12.4,7.1l-6.1-10.5c4.8-4.3,11.1-6.6,18-6.6C28.7,11,28.9,11.1,29.1,11.1z"/>
		<path class="st4" d="M12.8,39.6c0,2,0.3,3.9,0.9,5.7H0.6C0.3,43.6,0,41.6,0,39.6c0-7.4,2.9-14.3,7.4-19.4l6.9,12
			C13.3,34.4,12.8,36.9,12.8,39.6z"/>
		<path class="st5" d="M24,56.8l-5.5,9.3c-8.3-2.9-14.5-9.7-17.1-18h13.4C16.8,52,20,55,24,56.8z"/>
		<path class="st6" d="M29.1,58.2v9.9c-0.2,0-0.4,0-0.6,0c-2.3,0-4.3,0-6.3-0.6l5.5-9.6C28.2,58.1,28.6,58.1,29.1,58.2z"/>
	</g>
</g>
</svg>
